<svg xmlns:xlink="http://www.w3.org/1999/xlink" width="939" viewBox="0 0 939 939" xmlns="http://www.w3.org/2000/svg" height="939" xmlns:ev="http://www.w3.org/2001/xml-events"><defs/><g transform="translate(5.5,5.5)" id="page2"><rect x="0" width="929" height="929" fill="none" y="0"/><g transform="translate(44.910173,179.535930)" id="group2"><path transform="translate(368.404029,150.583867)" fill-rule="nonzero" d="M83.2,97.1L63.3,87.6L66.7,80.5L73.3,83.7L69.8,59.7L86.4,42.3L62.5,37.9L50.8,16.6L39.6,37.8L15.8,42.1L32.7,59.6L29.7,83.7L62.5,68.1L65.9,75.1L20.1,96.9L24.5,62.3L.0,37.0L34.4,30.8L50.7,.0L67.6,30.9L102.1,37.2L78.1,62.4L83.2,97.1z" id="shape3" fill="#222222"/><g transform="translate(-0.000250,-0.000000)" id="group4"><g transform="matrix(-1.000000,0.000000,0.000000,1.000000,838.872361,-0.000118)" id="group5"><path transform="matrix(0.000000,-1.000000,-1.000000,0.000000,222.884600,570.298000)" fill-rule="nonzero" d="M20.0,37.8L244.6,37.8L264.6,18.9L244.6,.0L20.0,.0L.0,18.9L20.0,37.8z" id="shape6" fill="#000000"/><path transform="matrix(-0.707107,-0.707107,-0.707107,0.707107,420.964898,394.239515)" fill-rule="nonzero" d="M20.0,37.8L244.6,37.8L264.6,18.9L244.6,.0L20.0,.0L.0,18.9L20.0,37.8z" id="shape7" fill="#000000"/><path transform="matrix(0.707107,-0.707107,-0.707107,-0.707107,13.362985,421.335898)" fill-rule="nonzero" d="M20.0,37.8L244.6,37.8L264.6,18.9L244.6,.0L20.0,.0L.0,18.9L20.0,37.8z" id="shape8" fill="#000000"/><path transform="matrix(0.707107,-0.707107,-0.707107,-0.707107,234.259485,200.439398)" fill-rule="nonzero" d="M20.0,37.8L244.6,37.8L264.6,18.9L244.6,.0L20.0,.0L.0,18.9L20.0,37.8z" id="shape9" fill="#000000"/></g><g transform="translate(-0.000114,-0.000057)" id="group10"><path transform="matrix(0.000000,-1.000000,-1.000000,0.000000,222.884296,570.298877)" fill-rule="nonzero" d="M20.0,37.8L244.6,37.8L264.6,18.9L244.6,.0L20.0,.0L.0,18.9L20.0,37.8z" id="shape11" fill="#000000"/><path transform="matrix(-0.707107,-0.707107,-0.707107,0.707107,420.965049,394.239735)" fill-rule="nonzero" d="M20.0,37.8L244.6,37.8L264.6,18.9L244.6,.0L20.0,.0L.0,18.9L20.0,37.8z" id="shape12" fill="#000000"/><path transform="matrix(0.707107,-0.707107,-0.707107,-0.707107,13.362771,421.335859)" fill-rule="nonzero" d="M20.0,37.8L244.6,37.8L264.6,18.9L244.6,.0L20.0,.0L.0,18.9L20.0,37.8z" id="shape13" fill="#000000"/><path transform="matrix(0.707107,-0.707107,-0.707107,-0.707107,234.259154,200.439476)" fill-rule="nonzero" d="M20.0,37.8L244.6,37.8L264.6,18.9L244.6,.0L20.0,.0L.0,18.9L20.0,37.8z" id="shape14" fill="#000000"/></g></g></g></g></svg>