<svg width="927" xmlns:xlink="http://www.w3.org/1999/xlink" xmlns:ev="http://www.w3.org/2001/xml-events" xmlns="http://www.w3.org/2000/svg" height="655" viewBox="0 0 927 655"><defs/><g transform="translate(5.5,5.5)" id="page3"><rect width="917" height="645" x="0" y="0" fill="none"/><g transform="translate(39.091620,39.448904)" id="group1"><path transform="matrix(0.000000,-1.000000,-1.000000,0.000000,221.110600,566.752000)" d="M20.0,37.8L244.6,37.8L264.6,18.9L244.6,.0L20.0,.0L.0,18.9L20.0,37.8z" fill-rule="nonzero" id="shape2" fill="#000000"/><g transform="translate(0.000000,0.000300)" id="group3"><path transform="matrix(0.707107,-0.707107,-0.707107,-0.707107,230.712415,200.439427)" d="M20.0,37.8L244.6,37.8L264.6,18.9L244.6,.0L20.0,.0L.0,18.9L20.0,37.8z" fill-rule="nonzero" id="shape4" fill="#000000"/><path transform="matrix(-0.707107,-0.707107,-0.707107,0.707107,200.439427,173.714185)" d="M20.0,37.8L244.6,37.8L264.6,18.9L244.6,.0L20.0,.0L.0,18.9L20.0,37.8z" fill-rule="nonzero" id="shape5" fill="#000000"/></g><g transform="translate(0.000000,217.093400)" id="group6"><path transform="matrix(0.707107,0.707107,-0.707107,0.707107,230.710708,-13.362635)" d="M20.0,37.8L244.6,37.8L264.6,18.9L244.6,.0L20.0,.0L.0,18.9L20.0,37.8z" fill-rule="nonzero" id="shape7" fill="#000000"/><path transform="matrix(-0.707107,0.707107,-0.707107,-0.707107,200.439735,13.362608)" d="M20.0,37.8L244.6,37.8L264.6,18.9L244.6,.0L20.0,.0L.0,18.9L20.0,37.8z" fill-rule="nonzero" id="shape8" fill="#000000"/></g><g transform="translate(434.563000,0.001000)" id="group9"><path transform="matrix(0.000000,-1.000000,-1.000000,0.000000,221.110600,566.752000)" d="M20.0,37.8L244.6,37.8L264.6,18.9L244.6,.0L20.0,.0L.0,18.9L20.0,37.8z" fill-rule="nonzero" id="shape10" fill="#000000"/><g transform="translate(0.000000,-0.000100)" id="group11"><path transform="matrix(0.707107,-0.707107,-0.707107,-0.707107,230.712415,200.439427)" d="M20.0,37.8L244.6,37.8L264.6,18.9L244.6,.0L20.0,.0L.0,18.9L20.0,37.8z" fill-rule="nonzero" id="shape12" fill="#000000"/><path transform="matrix(-0.707107,-0.707107,-0.707107,0.707107,200.439427,173.714185)" d="M20.0,37.8L244.6,37.8L264.6,18.9L244.6,.0L20.0,.0L.0,18.9L20.0,37.8z" fill-rule="nonzero" id="shape13" fill="#000000"/></g><g transform="translate(0.000000,217.093400)" id="group14"><path transform="matrix(0.707107,0.707107,-0.707107,0.707107,230.710708,-13.362635)" d="M20.0,37.8L244.6,37.8L264.6,18.9L244.6,.0L20.0,.0L.0,18.9L20.0,37.8z" fill-rule="nonzero" id="shape15" fill="#000000"/><path transform="matrix(-0.707107,0.707107,-0.707107,-0.707107,200.439735,13.362608)" d="M20.0,37.8L244.6,37.8L264.6,18.9L244.6,.0L20.0,.0L.0,18.9L20.0,37.8z" fill-rule="nonzero" id="shape16" fill="#000000"/></g></g></g></g></svg>